{
	"asset":{
		"generator":"Khronos glTF Blender I/O v3.6.27",
		"version":"2.0"
	},
	"scene":0,
	"scenes":[
		{
			"name":"Scene",
			"nodes":[
				0
			]
		}
	],
	"nodes":[
		{
			"mesh":0,
			"name":"Left-Insole"
		}
	],
	"materials":[
		{
			"doubleSided":true,
			"name":"Material.001",
			"pbrMetallicRoughness":{
				"baseColorFactor":[
					0.7447136640548706,
					0.8000000715255737,
					0.7711805701255798,
					1
				],
				"metallicFactor":0,
				"roughnessFactor":0.5
			}
		},
		{
			"doubleSided":true,
			"name":"Material.002",
			"pbrMetallicRoughness":{
				"baseColorFactor":[
					0.00993615947663784,
					0.009498920291662216,
					0.8000000715255737,
					1
				],
				"metallicFactor":0,
				"roughnessFactor":0.5
			}
		}
	],
	"meshes":[
		{
			"name":"Left-Insole",
			"primitives":[
				{
					"attributes":{
						"POSITION":0,
						"NORMAL":1
					},
					"indices":2,
					"material":0
				},
				{
					"attributes":{
						"POSITION":3,
						"NORMAL":4
					},
					"indices":5,
					"material":1
				}
			]
		}
	],
	"accessors":[
		{
			"bufferView":0,
			"componentType":5126,
			"count":17482,
			"max":[
				46.51593780517578,
				24.991897583007812,
				0
			],
			"min":[
				-49.64828872680664,
				0,
				-265
			],
			"type":"VEC3"
		},
		{
			"bufferView":1,
			"componentType":5126,
			"count":17482,
			"type":"VEC3"
		},
		{
			"bufferView":2,
			"componentType":5123,
			"count":24933,
			"type":"SCALAR"
		},
		{
			"bufferView":3,
			"componentType":5126,
			"count":1640,
			"max":[
				46.51593780517578,
				5,
				0
			],
			"min":[
				-49.64828872680664,
				0,
				-265
			],
			"type":"VEC3"
		},
		{
			"bufferView":4,
			"componentType":5126,
			"count":1640,
			"type":"VEC3"
		},
		{
			"bufferView":5,
			"componentType":5123,
			"count":2247,
			"type":"SCALAR"
		}
	],
	"bufferViews":[
		{
			"buffer":0,
			"byteLength":209784,
			"byteOffset":0,
			"target":34962
		},
		{
			"buffer":0,
			"byteLength":209784,
			"byteOffset":209784,
			"target":34962
		},
		{
			"buffer":0,
			"byteLength":49866,
			"byteOffset":419568,
			"target":34963
		},
		{
			"buffer":0,
			"byteLength":19680,
			"byteOffset":469436,
			"target":34962
		},
		{
			"buffer":0,
			"byteLength":19680,
			"byteOffset":489116,
			"target":34962
		},
		{
			"buffer":0,
			"byteLength":4494,
			"byteOffset":508796,
			"target":34963
		}
	],
	"buffers":[
		{
			"byteLength":513292,
			"uri":"data:application/octet-stream;base64,"
		}
	]
}
