<svg width="40" height="41" viewBox="0 0 40 41" fill="none" xmlns="http://www.w3.org/2000/svg">
<g clip-path="url(#clip0_356_1315)">
<path d="M31.7969 0.5H8.20312C3.67992 0.5 0 4.17992 0 8.70312V32.2969C0 36.8201 3.67992 40.5 8.20312 40.5H31.7969C36.3201 40.5 40 36.8201 40 32.2969V8.70312C40 4.17992 36.3201 0.5 31.7969 0.5ZM12.3163 31.3215C11.955 31.9473 11.2971 32.2976 10.6216 32.2977C10.2798 32.2978 9.94405 32.2076 9.64828 32.0364C8.71562 31.498 8.39492 30.3011 8.93336 29.3684L9.3175 28.7031H13.828L12.3163 31.3215ZM8.63281 27.1406C7.55586 27.1406 6.67969 26.2645 6.67969 25.1875C6.67969 24.1105 7.55586 23.2344 8.63281 23.2344H12.4748L17.7447 14.1067L16.3165 11.633C15.778 10.7003 16.0987 9.50344 17.0313 8.96492C17.964 8.42648 19.1609 8.74727 19.6994 9.67984L20 10.2005L20.3006 9.67992C20.8393 8.74719 22.0362 8.42656 22.9686 8.965C23.4204 9.22586 23.7436 9.64703 23.8786 10.1509C24.0137 10.6548 23.9443 11.1813 23.6834 11.633L16.9854 23.2344H21.2103L23.4656 27.1406H8.63281ZM31.3672 27.1406H29.7804L31.0666 29.3684C31.6051 30.3009 31.2844 31.4978 30.3518 32.0363C30.0508 32.2101 29.7167 32.2989 29.3783 32.2989C29.2086 32.2989 29.038 32.2766 28.8696 32.2315C28.3656 32.0964 27.9445 31.7732 27.6836 31.3213L20.902 19.5754L23.1573 15.6691L27.5252 23.2344H31.3672C32.4441 23.2344 33.3203 24.1105 33.3203 25.1875C33.3203 26.2645 32.4441 27.1406 31.3672 27.1406Z" fill="white"/>
</g>
<defs>
<clipPath id="clip0_356_1315">
<rect width="40" height="40" fill="white" transform="translate(0 0.5)"/>
</clipPath>
</defs>
</svg>
