<svg width="40" height="41" viewBox="0 0 40 41" fill="none" xmlns="http://www.w3.org/2000/svg">
<path d="M20 0.728241C8.97164 0.728241 0 9.69988 0 20.7282C0 31.7566 8.97164 40.7282 20 40.7282C31.0284 40.7282 40 31.7566 40 20.7282C40 9.69988 31.0284 0.728241 20 0.728241ZM26.1784 21.9066L17.845 30.2399C17.6904 30.3949 17.5068 30.5178 17.3045 30.6016C17.1023 30.6854 16.8855 30.7284 16.6666 30.7282C16.4477 30.7284 16.231 30.6854 16.0288 30.6016C15.8265 30.5178 15.6429 30.3949 15.4883 30.2399C14.8366 29.5882 14.8366 28.5349 15.4883 27.8832L22.6434 20.7282L15.4884 13.5732C14.8367 12.9216 14.8367 11.8682 15.4884 11.2166C16.14 10.565 17.1934 10.565 17.845 11.2166L26.1784 19.55C26.83 20.2016 26.83 21.2549 26.1784 21.9066Z" fill="white"/>
</svg>
