<svg width="40" height="41" viewBox="0 0 40 41" fill="none" xmlns="http://www.w3.org/2000/svg">
<g clip-path="url(#clip0_356_1307)">
<path d="M0.815469 1.97309C0.341797 2.59903 0.078125 3.36903 0.078125 4.19301V36.8065C0.078125 37.5719 0.306406 38.2909 0.71875 38.8915L18.4641 20.3819L0.815469 1.97309ZM20.0888 18.687L25.8456 12.6823L5.60969 0.99942C4.73156 0.492076 3.72383 0.371842 2.78359 0.636138L20.0888 18.687ZM20.0888 22.0766L2.60859 40.3096C2.98147 40.4354 3.37233 40.4997 3.76586 40.5C4.39914 40.5 5.03266 40.3334 5.60977 40.0002L25.9912 28.2329L20.0888 22.0766ZM33.8538 17.3061L27.9377 13.8903L21.7139 20.3817L28.0829 27.0253L33.8538 23.6934C35.0085 23.0269 35.698 21.8328 35.698 20.4997C35.698 19.1665 35.0085 17.9725 33.8538 17.3061Z" fill="white"/>
</g>
<defs>
<clipPath id="clip0_356_1307">
<rect width="40" height="40" fill="white" transform="translate(0 0.5)"/>
</clipPath>
</defs>
</svg>
